<svg xmlns="http://www.w3.org/2000/svg" width="100" height="10" viewBox="0 0 100 10" fill="none">
  <g clip-path="url(#clip0_106_6320)">
    <path d="M43.9789 6.10121H51.2938V3.65006H43.9789V2.56867H51.2938V0.128906H40.7197V9.82346H51.2938V7.33437H43.9789V6.10121Z" fill="black"/>
    <path d="M32.9516 0.128906H29.6997V9.82346H32.9516V0.128906Z" fill="black"/>
    <path d="M40.037 0.128906H36.7852V9.82346H40.037V0.128906Z" fill="black"/>
    <path d="M8.88938 3.57607H3.28305V0.128906H0V9.82346H3.28305V6.14295H8.88938V9.82346H12.1724V0.128906H8.88938V3.57607Z" fill="black"/>
    <path d="M87.4679 4.32751C86.655 3.87788 85.3282 3.63504 83.5206 3.60089L81.902 3.57623C81.2927 3.56864 80.8174 3.52311 80.4871 3.44153C80.076 3.34098 79.9476 3.24991 79.9072 3.20628C79.843 3.13419 79.8118 3.04312 79.8118 2.9236C79.8118 2.79459 79.8393 2.69973 79.8962 2.63333C79.9494 2.57073 80.2669 2.38291 80.6449 2.29564C81.1679 2.17801 81.3918 2.16852 81.9919 2.14386C82.113 2.13817 82.247 2.13248 82.403 2.12679C83.082 2.09454 83.805 2.21595 84.3867 2.45879C84.5501 2.52709 84.6822 2.61436 84.7813 2.71681C84.9116 2.8534 84.952 2.9236 84.9648 2.95395C84.9905 3.01466 85.0107 3.08865 85.0254 3.17592L85.0474 3.29924H88.4295V3.02036C88.4295 2.69214 88.3763 2.48156 88.2772 2.20647C88.1763 1.92189 87.9873 1.63542 87.7193 1.35274C87.4532 1.07196 87.1082 0.832915 86.6935 0.643198C86.2843 0.455378 85.7319 0.299809 85.0511 0.180287C84.3739 0.0626627 83.583 0.00195312 82.7003 0.00195312H81.8065C80.9587 0.00195312 80.2026 0.0588683 79.5585 0.174596C78.9125 0.290323 78.3895 0.438303 78.006 0.618534C77.6169 0.800663 77.294 1.03022 77.0499 1.29962C76.8021 1.57092 76.6352 1.8498 76.5507 2.12679C76.4682 2.39808 76.4278 2.69594 76.4278 3.01277V3.1266C76.4278 4.96306 78.0537 5.93821 81.2597 6.02358L82.9168 6.06152C83.6215 6.0786 84.1665 6.12982 84.5354 6.2152C84.996 6.32144 85.1428 6.42768 85.1905 6.4808C85.2694 6.56997 85.3061 6.69139 85.3061 6.85265C85.3061 6.96648 85.2841 7.06134 85.2364 7.14102C85.2052 7.19603 85.1245 7.2852 84.9281 7.39524C84.7611 7.4882 84.4858 7.56029 84.106 7.61341C83.7059 7.66843 83.4545 7.69499 82.8654 7.69499H82.1662C80.199 7.69499 79.7714 7.2207 79.7182 6.45234L79.709 6.31005H76.2993V6.60222C76.2993 6.90766 76.3323 7.09359 76.4021 7.37247C76.4718 7.65136 76.6278 7.96249 76.8664 8.30209C77.1068 8.63978 77.4316 8.93195 77.8353 9.1672C78.2336 9.39865 78.8024 9.59975 79.5291 9.76101C80.2504 9.92227 81.1037 10.0039 82.0671 10.0039V10.0001C82.1057 10.0039 82.1534 10.0039 82.2066 10.0039H82.959C83.8931 10.0039 84.7226 9.94124 85.4199 9.81982C86.1228 9.69651 86.6862 9.53335 87.0972 9.33794C87.5138 9.13684 87.8533 8.88452 88.1066 8.58477C88.3616 8.28311 88.5323 7.98146 88.6167 7.6893C88.6975 7.40283 88.7397 7.07651 88.7397 6.71795V6.54151C88.7397 5.5436 88.3121 4.7999 87.4661 4.3332L87.4679 4.32751Z" fill="black"/>
    <path d="M92.6834 7.33437V6.10121H100V3.65006H92.6834V2.56867H100V0.128906H89.426V9.82346H100V7.33437H92.6834Z" fill="black"/>
    <path d="M23.0401 1.27881C24.0586 2.13064 24.5687 3.37139 24.5687 5.00106C24.5687 6.63073 24.0586 7.87148 23.0401 8.72332C22.0197 9.57515 20.5755 10.002 18.7055 10.002C16.8355 10.002 15.3913 9.57894 14.3783 8.7309C13.3634 7.88287 12.8569 6.64022 12.8569 5.00296C12.8569 3.3657 13.3634 2.12115 14.3783 1.27501C15.3931 0.426976 16.8355 0.00390625 18.7055 0.00390625C20.5755 0.00390625 22.0216 0.43077 23.0401 1.2826V1.27881ZM17.0025 2.92176C16.6134 3.32396 16.4189 3.86845 16.4189 4.55143V5.45069C16.4189 6.13367 16.6134 6.67816 17.0025 7.08036C17.3915 7.48256 17.9586 7.68366 18.7055 7.68366C19.4524 7.68366 20.0213 7.48256 20.4158 7.08036C20.8104 6.67816 21.0068 6.13557 21.0068 5.45069V4.55143C21.0068 3.86845 20.8104 3.32586 20.4158 2.92176C20.0213 2.51956 19.4524 2.31846 18.7055 2.31846C17.9586 2.31846 17.3915 2.51956 17.0025 2.92176Z" fill="black"/>
    <path d="M31.1954 0.128906H27.3636L23.6824 9.82346H27.5141L31.1954 0.128906Z" fill="black"/>
    <path d="M38.2809 0.128906H34.4491L30.7678 9.82346H34.5996L38.2809 0.128906Z" fill="black"/>
    <path d="M73.031 9.81777H76.8554L73.1815 0.128906H67.8669L64.1948 9.81777H68.0192L68.6414 8.17671H72.407L73.0292 9.81777H73.031ZM69.5975 5.65917L70.5242 3.2175L71.4509 5.65917H69.5975Z" fill="black"/>
    <path d="M64.5894 2.39804C64.5894 2.36768 64.5894 2.33923 64.5876 2.30887C64.5876 2.29938 64.5876 2.2899 64.5857 2.28231C64.5857 2.28231 64.5857 2.28041 64.5857 2.27852C64.5087 1.0795 63.5434 0.132812 62.3634 0.132812H51.9931H51.9802V9.82737H60.4585C60.5668 9.82737 60.6714 9.82547 60.776 9.82168V9.82737H61.9707C63.4186 9.82737 64.5931 8.61318 64.5931 7.11631V6.99299C64.5931 6.99299 64.5931 6.9873 64.5931 6.98351C64.5931 6.98351 64.5931 6.98351 64.5931 6.98161C64.5931 6.97781 64.5931 6.97402 64.5931 6.97023C64.5931 6.919 64.5913 6.86778 64.5876 6.81655C64.5876 6.79569 64.5839 6.77482 64.5821 6.75395C64.5784 6.7198 64.5747 6.68565 64.5711 6.6515C64.5656 6.60787 64.5582 6.56233 64.5509 6.5187C64.5472 6.49403 64.5435 6.46937 64.538 6.44471C64.5307 6.40866 64.5233 6.37262 64.5142 6.33657C64.5105 6.32519 64.5087 6.31191 64.505 6.30052C64.316 5.55304 63.826 4.93076 63.1764 4.58168C63.7581 4.34643 64.2187 3.86645 64.4444 3.26505C64.4444 3.26505 64.4444 3.26315 64.4444 3.26125C64.4665 3.20054 64.4885 3.13604 64.505 3.07343C64.505 3.06964 64.5068 3.06395 64.5087 3.06015C64.5252 2.99754 64.5399 2.93494 64.5527 2.87043C64.5527 2.86474 64.5545 2.85715 64.5564 2.85146C64.5674 2.78696 64.5766 2.72245 64.5821 2.65795C64.5821 2.65226 64.5821 2.64657 64.5821 2.64088C64.5876 2.57447 64.5913 2.50618 64.5913 2.43598V2.43029C64.5913 2.4208 64.5913 2.40942 64.5913 2.39993L64.5894 2.39804ZM55.2761 2.41701H59.8603C60.6788 2.41701 60.7742 2.75471 60.7742 3.00893V3.03359C60.7742 3.2935 60.6788 3.63689 59.8603 3.63689H55.2761V2.41701ZM61.1761 6.70462C61.1761 6.90762 61.1045 7.08026 60.9595 7.23773C60.8145 7.3933 60.5319 7.47298 60.1209 7.47298H55.278V5.93627H60.1209C61.0678 5.93627 61.1761 6.34606 61.1761 6.6534V6.70462Z" fill="black"/>
  </g>
  <defs>
    <clipPath id="clip0_106_6320">
      <rect width="100" height="10" fill="white"/>
    </clipPath>
  </defs>
</svg>