<?xml version="1.0" encoding="UTF-8"?>
<svg id="Layer_2" data-name="Layer 2" xmlns="http://www.w3.org/2000/svg" viewBox="0 0 138.55 52.71">
  <defs>
    <style>
      .cls-1 {
        fill: #FB4700;
        stroke-width: 0px;
      }
    </style>
  </defs>
  <g id="Layer_2-2" data-name="Layer 2">
    <g>
      <path class="cls-1" d="M55.5,6.74c5.55,4.49,8.33,11.03,8.33,19.62s-2.78,15.13-8.33,19.62c-5.56,4.49-13.43,6.74-23.62,6.74s-18.06-2.23-23.58-6.7C2.76,41.54,0,34.99,0,26.35S2.76,11.17,8.29,6.7C13.82,2.23,21.68,0,31.87,0s18.07,2.25,23.62,6.74ZM22.59,15.4c-2.12,2.12-3.18,4.99-3.18,8.59v4.74c0,3.6,1.06,6.47,3.18,8.59,2.12,2.12,5.21,3.18,9.28,3.18s7.17-1.06,9.32-3.18c2.15-2.12,3.22-4.98,3.22-8.59v-4.74c0-3.6-1.07-6.46-3.22-8.59-2.15-2.12-5.25-3.18-9.32-3.18s-7.16,1.06-9.28,3.18Z"/>
      <polygon class="cls-1" points="99.94 .68 79.05 .68 58.99 51.78 79.88 51.78 99.94 .68"/>
      <polygon class="cls-1" points="138.55 .68 117.66 .68 97.6 51.78 118.49 51.78 138.55 .68"/>
    </g>
  </g>
</svg>